<?xml version="1.0" encoding="UTF-8" standalone="no"?>
<!-- Created with Inkscape (http://www.inkscape.org/) -->

<svg
   xmlns:dc="http://purl.org/dc/elements/1.1/"
   xmlns:cc="http://creativecommons.org/ns#"
   xmlns:rdf="http://www.w3.org/1999/02/22-rdf-syntax-ns#"
   xmlns:svg="http://www.w3.org/2000/svg"
   xmlns="http://www.w3.org/2000/svg"
   xmlns:sodipodi="http://sodipodi.sourceforge.net/DTD/sodipodi-0.dtd"
   xmlns:inkscape="http://www.inkscape.org/namespaces/inkscape"
   width="1200"
   height="1200"
   id="svg3896"
   version="1.1"
   inkscape:version="0.48.3.1 r9886"
   sodipodi:docname="Religious_symbols-4x4_template.svg">
  <defs
     id="defs3898" />
  <sodipodi:namedview
     id="base"
     pagecolor="#ffffff"
     bordercolor="#666666"
     borderopacity="1.0"
     inkscape:pageopacity="0.0"
     inkscape:pageshadow="2"
     inkscape:zoom="0.5"
     inkscape:cx="447.11376"
     inkscape:cy="632.40677"
     inkscape:document-units="px"
     inkscape:current-layer="layer1"
     showgrid="false"
     fit-margin-top="0"
     fit-margin-left="0"
     fit-margin-right="0"
     fit-margin-bottom="0"
     showguides="true"
     inkscape:window-width="1280"
     inkscape:window-height="641"
     inkscape:window-x="0"
     inkscape:window-y="31"
     inkscape:window-maximized="1">
    <inkscape:grid
       type="xygrid"
       id="grid4057"
       empspacing="5"
       visible="true"
       enabled="true"
       snapvisiblegridlinesonly="true" />
  </sodipodi:namedview>
  <metadata
     id="metadata3901">
    <rdf:RDF>
      <cc:Work
         rdf:about="">
        <dc:format>image/svg+xml</dc:format>
        <dc:type
           rdf:resource="http://purl.org/dc/dcmitype/StillImage" />
        <dc:title></dc:title>
      </cc:Work>
    </rdf:RDF>
  </metadata>
  <g
     inkscape:label="Layer 1"
     inkscape:groupmode="layer"
     id="layer1"
     transform="translate(0,147.63782)">
    <g
       id="g5560"
       transform="matrix(1.3749979,0,0,1.3749979,-444.72568,-154.18811)">
      <circle
         transform="matrix(1.4681678,0,0,1.4681678,-115.71653,-7.0173)"
         sodipodi:ry="1"
         sodipodi:rx="1"
         sodipodi:cy="405.534"
         sodipodi:cx="368.52899"
         id="circle4035"
         r="1"
         cy="405.534"
         cx="368.52899"
         d="m 369.52899,405.534 c 0,0.55228 -0.44771,1 -1,1 -0.55228,0 -1,-0.44772 -1,-1 0,-0.55229 0.44772,-1 1,-1 0.55229,0 1,0.44771 1,1 z" />
      <path
         inkscape:connector-curvature="0"
         id="path4043"
         d="m 479.9896,519.80538 c -0.1189,-0.44045 -0.436,-1.61058 -5.0255,-3.16684 -2.2052,-0.74729 -5.5937,-1.52689 -9.2025,-1.00129 -4.3076,0.62838 -9.0204,3.08022 -12.3194,9.731 l 0,-45.26213 c 0,-0.29069 -0.06,-0.57846 -0.1747,-0.84419 -0.1307,-0.30245 -3.2769,-7.40544 -9.709,-8.60787 -3.3224,-0.62104 -6.7653,0.43751 -10.2757,3.13454 l -0.063,-13.25022 c 0,-0.43017 -0.1351,-0.8486 -0.3817,-1.20096 -0.1953,-0.28189 -4.8817,-6.90773 -11.6044,-6.97527 -4.0904,-0.0294 -7.8812,2.29475 -11.25355,6.94003 -0.26427,0.36264 -0.40374,0.79869 -0.40374,1.24795 l 0,9.48583 c -2.21253,-1.61058 -5.40873,-3.27108 -8.95729,-2.99066 -3.69685,0.2907 -6.89158,2.54727 -9.49905,6.70512 -0.21288,0.33768 -0.32446,0.72822 -0.32446,1.12756 l 0,16.65783 c -2.57958,-1.45349 -6.25587,-2.85852 -9.9762,-2.02167 -3.69245,0.82805 -6.53042,3.58967 -8.4361,8.20706 -0.10571,0.25546 -0.16003,0.52854 -0.16003,0.80602 l -0.20701,97.53185 c -0.15856,9.01897 3.02883,27.84971 15.98835,41.22471 9.46821,9.7721 22.28972,14.8388 38.10928,15.0634 0.3097,0 0.618,0.015 0.9264,0.015 19.3489,0 34.2846,-8.5991 43.2287,-24.9089 6.4585,-11.77474 7.8518,-23.94882 8.1248,-27.40048 l 0,-0.0852 c 0.046,-0.40961 0.015,-1.09233 -0.2011,-4.74072 -0.7679,-13.237 -3.1052,-53.51619 1.8073,-74.36709 0.084,-0.34796 0.078,-0.70619 -0.015,-1.04681 z m -6.0297,75.65467 c 0.116,1.99231 0.2158,3.72036 0.2143,4.10795 0,0.0382 -0.015,0.0837 -0.015,0.13801 -0.643,8.12484 -5.9255,48.39667 -47.09,48.39667 -0.2965,0 -0.599,0 -0.8985,0 -14.64937,-0.207 -26.46372,-4.8405 -35.11857,-13.7728 -11.98905,-12.37669 -14.94007,-29.83177 -14.79179,-38.22677 l 0.20702,-97.13544 c 1.33016,-3.0347 3.10664,-4.81999 5.28246,-5.30889 3.34009,-0.75023 7.21898,1.52689 9.04539,2.91872 l 0,1.72803 c 0,0.15563 0.0191,0.30978 0.0499,0.4566 0.0499,8.91325 0,35.54139 -0.0499,54.11959 0,1.17307 0.9455,2.12591 2.11563,2.12884 0,0 0,0 0,0 1.17013,0 2.12003,-0.94697 2.12297,-2.11563 0,0 0.0411,-14.29261 0.0617,-28.60284 0.0147,-8.30982 0.0147,-14.9386 0,-19.70133 0,-2.69262 -0.0147,-4.94186 -0.022,-6.5216 -0.0147,-1.12903 -0.0147,-1.87779 -0.047,-2.41074 l 0,-20.14913 c 1.76914,-2.63096 3.75116,-4.05361 5.89763,-4.22686 4.35311,-0.35823 8.46986,4.23126 8.5418,4.31495 0.0308,0.0323 0.0631,0.0558 0.094,0.0881 l 0,70.83468 c 0,1.17306 0.9499,2.12297 2.1215,2.12297 1.17304,0 2.12294,-0.94991 2.12294,-2.12297 l 0,-85.2609 c 2.3887,-3.10224 4.8567,-4.67464 7.3541,-4.64675 3.6792,0.0279 6.7594,3.38706 7.8018,4.66731 l 0.4052,83.88816 c 0,1.16719 0.9544,2.11122 2.123,2.11122 0,0 0,0 0.015,0 1.1731,-0.006 2.1186,-0.96018 2.1127,-2.13325 l -0.3201,-65.71517 c 0.04,-0.0338 0.085,-0.0631 0.1219,-0.0998 3.4458,-3.4913 6.5818,-5.00352 9.3287,-4.49847 3.5633,0.65481 5.8154,4.55426 6.4365,5.76697 l 0,66.1982 c -0.051,1.86604 -0.051,3.83486 0,5.92112 0.028,1.15105 0.9719,2.06865 2.1215,2.06865 0.015,0 0.018,0 0.026,0 1.1628,-0.0147 2.0965,-0.96018 2.0965,-2.12297 l 0,-5.85946 c 0.3818,-13.79637 3.5824,-22.6641 9.3655,-25.78835 4.8714,-2.63243 10.4093,-0.63278 12.7143,0.43898 -4.5924,21.81256 -2.3226,60.94217 -1.5636,74.01033 z" />
      <path
         inkscape:connector-curvature="0"
         id="path4047"
         d="m 425.3224,561.26349 c -10.0804,0.009 -19.55305,3.94203 -26.6766,11.07586 -7.12208,7.13383 -11.03916,16.61379 -11.03035,26.69569 l 0,0.0646 c 0.0176,20.79077 16.94707,37.70704 37.73775,37.70704 0,0 0.032,0 0.032,0 20.8113,-0.018 37.7261,-16.96325 37.7085,-37.77164 l 0,-0.0646 c -0.016,-20.79072 -16.9471,-37.70695 -37.7716,-37.70695 z m 16.5257,26.72946 c -0.4948,-0.70325 -1.0336,-1.37273 -1.615,-2.00258 l 12.5029,-10.93932 c 1.038,1.18482 1.9982,2.43423 2.8776,3.74677 l -13.7655,9.19513 z m 16.1675,-5.03875 c 0.6944,1.40504 1.3022,2.86146 1.8117,4.36193 l -15.5611,5.28247 c -0.2981,-0.81631 -0.6534,-1.60471 -1.0512,-2.36522 l 14.8006,-7.27918 z m -16.3554,9.89105 0,13.64957 c 0,0.27601 -0.2246,0.49918 -0.5021,0.49918 -0.276,0 -0.4992,-0.22317 -0.4992,-0.49918 l 0,-13.64957 c 0,-0.27602 0.2232,-0.49918 0.5006,-0.49918 0.2746,0 0.4992,0.22463 0.4992,0.49918 z m -3.3137,-8.65192 c -0.6533,-0.54615 -1.3448,-1.04827 -2.0657,-1.50487 l 9.3214,-13.91676 c 1.3096,0.8809 2.559,1.84549 3.7424,2.88348 l -10.9981,12.53815 z m -3.0185,11.81435 c -0.091,-0.1659 -0.081,-0.36851 0.029,-0.5256 2.0834,-3.02883 1.3786,-8.00445 1.3728,-8.05437 -0.041,-0.27602 0.1512,-0.53148 0.4243,-0.57112 0.2731,-0.0411 0.53,0.14975 0.5711,0.4243 0.031,0.21435 0.7297,5.16355 -1.3713,8.51538 2.1847,4.38983 1.5519,13.05055 1.521,13.42347 -0.02,0.26574 -0.2393,0.46394 -0.5006,0.46394 -0.015,0 -0.028,0 -0.038,0 -0.2775,-0.022 -0.4845,-0.26427 -0.4624,-0.54029 0,-0.091 0.665,-9.1041 -1.546,-13.13571 z m -2.885,3.20356 c -0.6122,-2.30357 -1.7324,-2.58546 -2.5502,-2.78954 -0.4962,-0.12332 -1.1745,-0.29363 -1.2039,-1.06001 -0.034,-0.87503 0.8075,-1.00863 1.3639,-1.09819 0.8707,-0.13948 1.8558,-0.2951 2.4064,-1.81025 0.9044,-2.49882 0.9895,-6.30578 -1.753,-8.80607 -0.2056,-0.18793 -0.2202,-0.50505 -0.032,-0.7106 0.1879,-0.20554 0.5065,-0.21875 0.7106,-0.0323 3.1081,2.83797 3.0317,7.10153 2.0216,9.89252 -0.7517,2.07158 -2.28,2.3153 -3.1932,2.46212 -0.1454,0.0249 -0.3245,0.0514 -0.4449,0.0851 0.1,0.0352 0.2511,0.0749 0.3715,0.10277 0.9396,0.23638 2.5135,0.63131 3.2769,3.50892 0.9118,3.42232 0.5535,11.90542 0.4067,14.66264 0.5711,-0.29951 1.3683,-0.75758 2.0246,-1.27878 0.2173,-0.17177 0.5344,-0.13507 0.7062,0.0822 0.1718,0.21729 0.1365,0.53442 -0.082,0.70619 -1.2671,1.0057 -2.9261,1.75153 -2.9966,1.78382 -0.066,0.0308 -0.135,0.0426 -0.2055,0.0426 -0.1013,0 -0.2026,-0.0308 -0.2878,-0.0896 -0.1438,-0.1013 -0.2261,-0.27014 -0.2143,-0.44632 0.015,-0.11452 0.7047,-11.33869 -0.3245,-15.20731 z m 1.5666,-17.76925 c -0.765,-0.35677 -1.5548,-0.66655 -2.3682,-0.92348 l 5.441,-15.97367 c 1.5005,0.5124 2.9584,1.12168 4.3649,1.8176 l -7.4377,15.07955 z m -4.8729,-1.53277 c -0.8222,-0.14535 -1.6576,-0.24371 -2.512,-0.28482 l 1.1305,-16.93826 c 1.5915,0.10424 3.1551,0.31126 4.6864,0.6137 l -3.3049,16.60938 z m -5.0754,-0.23931 c -0.8442,0.069 -1.6782,0.18499 -2.4901,0.3553 l -3.3092,-16.73124 c 1.5372,-0.30098 3.1037,-0.49918 4.6878,-0.60195 l 1.1115,16.97789 z m -4.9492,1.0468 c -0.7958,0.27896 -1.5651,0.60783 -2.3095,0.98221 l -7.54929,-15.3497 c 1.41385,-0.69884 2.87169,-1.30226 4.36779,-1.80878 l 5.491,16.17627 z m -5.1753,30.06666 c 0,0.19379 -0.1072,0.36998 -0.2805,0.4566 -0.07,0.0338 -0.1468,0.0514 -0.2202,0.0514 -0.1101,0 -0.2187,-0.0352 -0.3098,-0.10571 -1.0703,-0.83101 -2.67056,-2.98187 -3.39583,-5.00648 -0.0925,-0.2628 0.0426,-0.55056 0.30538,-0.64305 0.2628,-0.094 0.54909,0.0426 0.64305,0.30391 0.47569,1.33309 1.4036,2.78364 2.2434,3.74823 l -0.069,-9.09236 -2.13182,-0.0587 c -0.27602,-0.007 -0.49624,-0.23931 -0.4889,-0.5168 0,-0.27748 0.23637,-0.4889 0.51826,-0.4889 l 2.09656,0.0558 -0.075,-9.9997 c -1.20095,1.67371 -1.95853,3.15509 -2.45183,4.19455 -0.12039,0.25106 -0.41843,0.35824 -0.66948,0.23932 -0.25253,-0.11893 -0.35824,-0.41843 -0.23932,-0.66949 0.62544,-1.31988 1.66491,-3.33421 3.46193,-5.55701 0.1336,-0.16444 0.3568,-0.2261 0.5564,-0.1571 0.2012,0.0705 0.3363,0.2584 0.3377,0.46982 l 0.087,11.50604 2.9878,0.0807 -0.1703,-14.78153 c 0,-0.27748 0.2187,-0.50652 0.4977,-0.50945 0,0 0,0 0,0 0.2745,0 0.4991,0.22022 0.5021,0.49771 l 0.3391,29.17107 c 0,0.27748 -0.2187,0.50652 -0.4962,0.50945 0,0 0,0 -0.015,0 -0.276,0 -0.4992,-0.22169 -0.5021,-0.49771 l -0.1556,-13.38091 -2.9936,-0.0822 0.075,10.26253 z m 0.6621,-27.80127 c -0.693,0.46981 -1.3522,0.98661 -1.9805,1.53717 l -11.26383,-12.8729 c 1.19215,-1.04974 2.43716,-2.01873 3.73795,-2.89376 l 9.50638,14.22949 z m -3.78199,3.33714 c -0.55203,0.62691 -1.06883,1.28612 -1.53864,1.97909 l -14.20306,-9.51226 c 0.87356,-1.30079 1.84109,-2.54727 2.88642,-3.74089 l 12.85528,11.27406 z m -2.82769,4.17988 c -0.37585,0.74583 -0.70472,1.51661 -0.98514,2.31089 l -16.12929,-5.49535 c 0.50505,-1.4946 1.107,-2.95249 1.80437,-4.3678 l 15.31006,7.55226 z m -1.67958,4.77301 c -0.17178,0.81483 -0.2907,1.64728 -0.35971,2.49442 l -16.91035,-1.12756 c 0.0998,-1.58268 0.29363,-3.14922 0.5946,-4.68492 l 16.67546,3.31806 z m -0.40816,5.06373 c 0.0396,0.85447 0.13801,1.69426 0.28336,2.5179 l -16.54038,3.27108 c -0.30097,-1.52983 -0.50652,-3.09196 -0.60929,-4.68199 l 16.86631,-1.10699 z m 0.89559,5.02553 c 0.25693,0.8163 0.56818,1.60765 0.92494,2.37256 l -15.02376,7.38932 c -0.69444,-1.4065 -1.30226,-2.86146 -1.81172,-4.36193 l 15.91054,-5.39995 z m 2.17435,4.64969 c 0.45954,0.72384 0.96312,1.41534 1.51075,2.07015 l -12.50586,10.94078 c -1.03652,-1.18334 -1.9967,-2.43275 -2.8776,-3.74382 l 13.87271,-9.26711 z m 3.31368,3.95968 c 0.6342,0.58139 1.3066,1.12168 2.0114,1.61645 l -9.18636,13.71267 c -1.3096,-0.8794 -2.55755,-1.844 -3.73942,-2.8805 l 10.91438,-12.44862 z m 4.2562,2.98332 c 0.7649,0.39787 1.5563,0.7517 2.374,1.04827 l -5.2898,15.52293 c -1.5005,-0.5124 -2.95687,-1.1217 -4.36191,-1.8161 l 7.27771,-14.7551 z m 4.9169,1.77795 c 0.8398,0.18205 1.7016,0.30978 2.5796,0.38172 l -1.085,16.27173 c -1.5915,-0.1043 -3.1551,-0.3127 -4.6849,-0.6152 l 3.1903,-16.03825 z m 1.7471,-30.35735 c 0,-1.18041 0.9602,-2.13912 2.1406,-2.13912 1.1804,0 2.1406,0.95871 2.1406,2.13912 0,1.1804 -0.9602,2.14059 -2.1406,2.14059 -1.1804,0 -2.1406,-0.96019 -2.1406,-2.14059 z m 2.0129,28.27402 c -0.2482,-0.0308 -0.4375,-0.24078 -0.4405,-0.49331 0,0 -0.1497,-11.79822 -0.1688,-13.66867 0,-0.50799 0.3039,-0.62837 0.4375,-0.65627 0.53,-0.11011 0.6592,0.18499 1.6605,2.49882 0.5491,1.26556 1.6238,3.75411 2.2257,4.46764 0.6416,-2.15527 0.4243,-6.03711 -0.1629,-8.63577 -1.9791,-0.61956 -2.769,-1.66345 -3.4032,-2.68382 -0.8531,-1.36687 -0.7004,-3.50746 0.3582,-4.98003 1.0468,-1.45348 2.4738,-1.80144 3.1242,-1.88219 0.2232,-0.59314 0.6651,-2.14206 -0.138,-3.60582 -0.944,-1.71776 -3.3591,-2.86293 -7.0061,-3.32393 -0.02,7.60951 0.3377,31.94591 0.3421,32.19843 0,0.27749 -0.2173,0.50652 -0.4962,0.50946 0,0 0,0 0,0 -0.276,0 -0.4992,-0.21876 -0.5036,-0.49478 0,-0.25839 -0.3817,-25.88531 -0.3391,-32.77836 0,-0.14241 0.062,-0.27748 0.1659,-0.37291 0.1057,-0.094 0.2466,-0.14241 0.389,-0.12479 4.3693,0.45513 7.1764,1.77207 8.3451,3.9156 1.2626,2.3197 0.092,4.68199 0.041,4.78329 -0.087,0.16884 -0.2599,0.27602 -0.4493,0.27602 0,0 0,0 0,0 -0.062,0 -1.5915,0.0235 -2.6485,1.49019 -0.8193,1.14076 -0.9587,2.8365 -0.3201,3.85981 0.6064,0.97339 1.2568,1.81906 3.1052,2.33 0.1762,0.0499 0.3112,0.18792 0.3538,0.36557 0.5917,2.40633 1.0321,6.98407 0.16,9.62824 -0.1938,0.58287 -0.5608,0.68564 -0.7634,0.69592 -0.015,0 -0.025,0 -0.035,0 -0.8413,0 -1.5945,-1.39036 -3.2579,-5.23402 -0.047,-0.11011 -0.095,-0.22316 -0.1468,-0.33621 0.043,3.36063 0.1204,9.57689 0.1424,11.29758 1.1393,0.0778 2.5517,-0.0573 3.7996,-0.36851 0.2716,-0.069 0.5418,0.0954 0.6108,0.36557 0.067,0.27014 -0.097,0.54176 -0.3671,0.60929 -1.104,0.27602 -2.2977,0.42283 -3.3768,0.42283 -0.4301,0 -0.8427,-0.0279 -1.2259,-0.0749 z m 1.474,2.51203 c 0.8838,-0.0455 1.7501,-0.15269 2.6001,-0.31125 l 3.1493,15.9223 c -1.5299,0.3024 -3.0935,0.5094 -4.685,0.6137 l -1.0644,-16.22475 z m 5.1841,-0.97192 c 0.8369,-0.27602 1.6502,-0.60195 2.4342,-0.98368 l 7.1324,14.50555 c -1.4065,0.6959 -2.86,1.3052 -4.3619,1.8161 l -5.2047,-15.33797 z m 4.751,-2.31237 c 0.7311,-0.48596 1.4271,-1.02184 2.0863,-1.6003 l 10.6266,12.14464 c -1.1834,1.038 -2.4328,2.0012 -3.7424,2.8821 l -8.9705,-13.42644 z m 3.9714,-3.49277 c 0.5755,-0.66068 1.1085,-1.35806 1.593,-2.0907 l 13.419,8.98668 c -0.8794,1.31255 -1.8411,2.56049 -2.8776,3.7453 l -12.1344,-10.64128 z m 2.9158,-4.41041 c 0.3758,-0.784 0.7003,-1.6003 0.9734,-2.43715 l 15.3379,5.22817 c -0.5109,1.499 -1.1187,2.95542 -1.8132,4.36046 l -14.4981,-7.15148 z m 1.6252,-5.01819 c 0.1527,-0.8486 0.2599,-1.71482 0.301,-2.59866 l 16.235,1.08204 c -0.1028,1.59149 -0.3083,3.15362 -0.6093,4.68345 l -15.9267,-3.16683 z m 0.2496,-5.24872 c -0.075,-0.87503 -0.204,-1.73537 -0.389,-2.5737 l 16.0647,-3.17564 c 0.3009,1.52836 0.5079,3.09049 0.6092,4.68198 l -16.2849,1.06736 z m -20.0361,37.89493 0.022,0 0,0 -0.027,0.5373 0,-0.5344 z" />
    </g>
    <g
       id="g5556"
       transform="matrix(1.316791,0,0,1.316791,-377.70393,-32.918777)">
      <path
         inkscape:connector-curvature="0"
         id="path4027"
         d="m 1189.5439,252.36218 -33.5991,11.67957 -0.7252,35.56305 -21.4902,-28.34496 -34.0468,10.30126 20.3174,-29.19892 -20.3174,-29.19586 34.0468,10.30126 21.4902,-28.34648 0.7252,35.56304 33.5991,11.67804 z" />
      <path
         inkscape:connector-curvature="0"
         id="path4045"
         d="m 1091.9448,147.89918 c -56.7098,1.07934 -102.4009,47.43733 -102.4009,104.4032 0,57.64203 46.7919,104.43237 104.4339,104.43237 26.9498,0 51.5216,-10.23687 70.0529,-27.01725 -13.064,7.50939 -28.2193,11.79916 -44.3619,11.79916 -49.2203,0 -89.1529,-39.93254 -89.1529,-89.15295 0,-49.22037 39.9326,-89.15291 89.1529,-89.15291 16.2699,0 31.534,4.36335 44.6685,11.98313 -18.565,-16.94749 -43.261,-27.29475 -70.3611,-27.29475 -0.673,0 -1.3583,-0.0123 -2.0314,0 z" />
    </g>
    <path
       d="m 682.81611,433.59745 c -30.24835,-10.80891 -52.21343,-37.70601 -60.90865,-74.59237 -3.9468,-16.74026 -5.0633,-44.40251 -1.79273,-44.40251 1.08818,0 3.99328,7.59087 6.45219,16.86746 5.38629,20.29951 14.57197,39.38973 23.44691,48.71882 14.73959,15.49869 51.25041,21.56936 72.28681,12.01819 16.3871,-7.43945 23.033,-25.12253 15.9065,-42.32512 -5.5074,-13.2941 -17.9979,-17.73961 -41.2673,-14.6851 0,0 -14.25903,-15.34929 -18.80148,-42.60776 l 14.61652,1.32437 c 17.60426,1.5969 30.89846,-2.29543 37.79686,-11.06531 6.4825,-8.24294 6.3431,-11.42868 -0.8743,-19.81497 -10.4071,-12.10299 -29.0995,-9.03838 -66.94486,10.98051 l -19.09627,-32.00883 8.0047,-6.107 c 20.06331,-15.30286 54.89643,-22.95227 74.72353,-16.40919 18.0546,5.95963 31.3103,29.60639 27.7713,49.54654 -2.3963,13.48186 -13.2052,32.36413 -21.5572,37.6535 l -7.2012,4.56059 9.9488,4.48588 c 16.9059,7.62315 27.2263,1.79475 39.5593,-22.33652 17.0634,-33.39577 28.1327,-42.04249 53.8689,-42.07883 11.9839,-0.0181 16.2477,1.23957 24.9893,7.36475 21.8137,15.28671 33.6905,46.94223 31.0823,82.83733 -3.305,45.4624 -24.8401,73.03582 -57.0367,73.03582 -17.6709,0 -29.0611,-6.19786 -38.1258,-20.74567 -7.9624,-12.77931 -11.5539,-38.08959 -6.9791,-49.22352 2.1943,-5.34187 2.5881,-5.52156 2.7335,-1.24966 0.2644,7.85735 9.204,20.62452 17.4065,24.86815 20.1339,10.41119 49.0338,-2.66892 60.4684,-27.3675 8.6811,-18.75105 4.0237,-54.91667 -7.8936,-61.29421 -2.4912,-1.33445 -8.6527,-2.42665 -13.6879,-2.42665 -10.7079,0 -19.1144,7.69786 -30.9024,28.28607 -4.076,7.12046 -10.9341,16.31833 -15.2402,20.44082 -6.9993,6.69853 -9.4967,7.49598 -23.4934,7.49598 l -15.6622,0 5.0633,11.24498 c 7.2455,16.09626 6.9025,42.24841 -0.7631,58.16903 -6.7733,14.06732 -22.4355,28.31029 -34.9564,31.78876 -12.1918,3.38763 -32.04107,2.94752 -42.94083,-0.94683 z m 58.98053,-217.54086 c -6.9307,-11.82236 -11.1945,-33.89441 -6.549,-33.89441 5.4549,11.83447 16.6393,22.39304 28.613,29.76183 21.5089,10.41121 43.3164,6.20999 67.1409,-12.93677 5.2468,-4.21534 9.8902,-7.19516 10.3222,-6.62181 5.8183,9.02828 15.8803,16.40717 19.2074,26.89912 0,4.42532 -19.0539,17.16625 -34.0923,22.79076 -37.2679,10.73622 -62.6328,6.48857 -84.6422,-25.99872 z m 18.7774,-27.3271 24.2645,-26.90316 26.9616,24.96102 c -9.22,7.59693 -15.8802,19.38497 -26.4166,25.36278 -8.3237,-6.1373 -20.7497,-13.37486 -24.8095,-23.42064 z"
       id="path4049"
       inkscape:connector-curvature="0" />
    <path
       inkscape:connector-curvature="0"
       d="m 543.24314,854.61441 c -6.3112,-14.61096 -19.93688,-33.71192 -49.01338,-41.723 -0.0868,-0.0241 -0.17766,0.0202 -0.21198,0.10109 -0.0385,0.0809 -0.01,0.17563 0.0646,0.22612 19.35941,12.69294 30.79458,29.46005 33.06989,48.48634 2.40657,20.13066 -5.71959,41.31719 -22.88647,59.6611 -10.62559,11.35239 -30.87734,27.94387 -50.23071,42.96865 l 0.002,-12.88472 c 0.95092,-0.69252 10.72649,-7.80113 17.54439,-12.18423 l 0.10681,-0.0689 -0.0283,-0.12306 c -0.8197,-3.71074 -1.62119,-7.63356 -2.38437,-11.75014 23.8879,-9.21838 40.87907,-32.42384 40.87907,-59.52176 0,-27.04139 -16.91857,-50.20042 -40.72364,-59.4632 0.59359,-2.79623 1.23357,-5.60253 1.93216,-8.41285 l 0.0262,-0.10109 -0.0727,-0.0708 c -15.48237,-15.43861 -24.71693,-25.7129 -24.80979,-25.81384 l -0.13323,-0.14942 -0.13325,0.14942 c -0.0911,0.10109 -9.31526,10.3732 -24.7984,25.81387 l -0.0727,0.0708 0.0263,0.10098 c 0.69854,2.81031 1.33855,5.61662 1.9321,8.41285 -23.80506,9.26279 -40.72361,32.42381 -40.72361,59.4632 0,27.09996 16.99323,50.30339 40.87909,59.52175 -0.76315,4.11659 -1.56265,8.0394 -2.38436,11.75015 l -0.0283,0.1232 0.10692,0.0689 c 6.81587,4.3831 16.58546,11.4917 17.53429,12.18421 l 0.004,12.87664 C 419.3661,949.30379 399.11839,932.71434 388.49482,921.366 c -17.16686,-18.3439 -25.29299,-39.53043 -22.88644,-59.66111 2.27533,-19.02628 13.71049,-35.79338 33.0699,-48.48633 0.0748,-0.0506 0.10307,-0.14536 0.0646,-0.22613 -0.0366,-0.0809 -0.12719,-0.12526 -0.20991,-0.10087 -29.07649,8.01108 -42.70419,27.11206 -49.01533,41.723 -8.12818,18.82436 -7.7567,38.18579 -4.96856,49.04961 7.29435,28.42232 25.42221,46.10807 39.98671,60.31924 10.30859,10.05825 18.45494,18.00482 18.55587,26.18341 0.002,0.0671 0.0406,0.12914 0.1012,0.1595 0.0609,0.0308 0.1313,0.0264 0.18778,-0.0198 l 23.00759,-16.90243 8.34214,5.66107 c -16.00391,12.02467 -28.20224,20.75859 -28.49904,20.97254 -0.003,0 -0.003,0 -0.003,0 -2.97183,2.1078 -4.91198,5.5642 -4.91198,9.4708 0,6.4222 5.22695,11.6269 11.67537,11.6269 6.44845,0 11.67744,-5.2047 11.67744,-11.6269 0,-2.3965 -0.72887,-4.6214 -1.97654,-6.4727 l 16.03024,-10.87589 0.008,27.39469 c -4.75452,2.6772 -7.96867,7.7729 -7.96867,13.6178 0,8.6247 6.99353,15.6183 15.61834,15.6183 8.62484,0 15.61836,-6.9936 15.61836,-15.6183 0,-5.8468 -3.21409,-10.9406 -7.97068,-13.6178 l 0.004,-27.39876 16.03626,10.87996 c -1.24768,1.8513 -1.9765,4.0783 -1.9765,6.4727 0,6.4222 5.22903,11.6269 11.67744,11.6269 6.44841,0 11.67542,-5.2047 11.67542,-11.6269 0,-3.9087 -1.94023,-7.363 -4.91205,-9.4708 0,0 0,0 -10e-4,0 -0.2968,-0.21197 -12.4951,-8.94787 -28.49904,-20.97254 l 8.34215,-5.66107 23.00761,16.90243 c 0.0546,0.0429 0.12718,0.044 0.18775,0.0198 0.0606,-0.0308 0.0989,-0.0935 0.10087,-0.1595 0.10329,-8.17859 8.24729,-16.12315 18.55588,-26.18341 14.56648,-14.21117 32.69034,-31.89692 39.98674,-60.31924 2.7841,-10.86382 3.1575,-30.22525 -4.9706,-49.04961 z m -45.31267,13.18554 c 0,21.01695 -12.6445,39.13267 -30.71988,47.14983 -3.9793,-26.75673 -5.70344,-59.69138 -0.0767,-94.33601 18.11778,8.00301 30.79659,26.14096 30.79659,47.18618 z m -103.10619,0 c 0,-21.04522 12.67881,-39.18317 30.79657,-47.18418 5.62674,34.64263 3.90257,67.57928 -0.0767,94.33605 -18.07735,-8.0192 -30.71982,-26.13492 -30.71982,-47.15187 z"
       id="path4039" />
    <path
       inkscape:connector-curvature="0"
       d="m 398.92939,128.79085 -0.39574,-73.523349 -72.88496,12.28206 46.95858,-56.579806 -63.72709,-37.438803 72.34205,-13.157075 -24.74709,-69.641407 63.87427,36.418599 25.80704,-69.253609 25.52265,68.951329 64.28593,-36.462339 -24.77292,69.221786 72.68807,13.385776 -63.47653,37.106692 47.07593,56.975551 -72.47928,-12.377516 -0.56478,73.901191 -47.56315,-56.064761 -47.94298,56.255681 0,0 z m 16.00884,-93.030266 0.26051,48.483907 31.69551,-37.194197 31.36538,36.971467 0.37388,-48.863746 47.79186,8.161523 -31.12477,-37.6694871 41.85764,-24.4686649 -48.06032,-8.851593 16.33896,-45.648052 -42.50794,24.108708 -16.82817,-45.467087 -17.06483,45.789253 -42.11814,-24.013259 16.36282,46.045793 -47.70236,8.672614 42.13406,24.7530439 -30.96566,37.3095381 48.19157,-8.119761 0,0 z"
       id="path4029" />
    <path
       inkscape:connector-curvature="0"
       d="m 525.76545,605.3085 43.25392,-74.91557 -86.50771,0 -36.13143,-62.58442 -36.13348,62.58442 -86.50576,0 43.25389,74.91557 -43.25389,74.91555 86.50576,0 36.13348,62.58446 36.13143,-62.58446 86.50771,0 -43.25392,-74.91555 z m 8.2874,-54.72705 -19.94217,34.53852 -19.94026,-34.53852 39.88243,0 0,0 z m -31.59902,54.72705 -31.59708,54.72703 -48.95509,0 -31.59503,-54.72703 31.59695,-54.72705 48.95523,0 31.59502,54.72705 z m -56.0736,-97.12295 12.82174,22.20738 -25.64347,0 12.82173,-22.20738 z m -87.67275,42.3959 39.88243,0 -19.94011,34.53852 -19.94232,-34.53852 z m 0,109.45408 19.94232,-34.53851 19.94011,34.53851 -39.88243,0 z m 87.67275,42.39597 -12.82173,-22.20745 25.64347,0 -12.82174,22.20745 z m 67.73045,-76.93448 19.94217,34.53851 -39.88243,0 19.94026,-34.53851 z"
       id="path4041" />
    <path
       inkscape:connector-curvature="0"
       d="m 924.34497,480.74358 c -0.70599,0.0311 -1.32052,0.19388 -1.76497,0.55418 -5.3955,4.34566 -2.06675,8.21762 -2.06675,8.21762 0,0 8.89801,8.88703 9.92406,15.38725 1.0279,6.50022 1.37723,14.71601 13.35158,19.84814 11.97437,5.13211 10.94098,11.28481 10.94098,11.28481 0,0 -2.73799,7.52993 11.9744,7.87195 7.8683,-0.0458 15.73467,-0.0659 23.60297,-0.0749 2.9502,5.48513 11.02326,8.21762 5.04433,8.21762 -6.52218,0 -7.73837,5.70277 -7.73837,5.70277 l -25.11382,0 c 0,0 -1.24369,-0.19387 -1.24369,-1.43758 0,-1.24371 -2.321,-1.24187 -2.321,-1.24187 0,0 -4.04021,-0.31277 -4.04021,1.70644 0,2.01919 0,21.89658 0,21.89658 0,0 -0.62733,4.65476 4.6547,4.65476 5.2822,0 35.26284,0 35.26284,0 l 0,20.81931 c 0,0 -5.74475,0.45726 -8.69674,2.32099 -2.9502,1.86556 -3.10379,2.65203 -1.70651,5.44854 1.3992,2.7947 6.52588,12.57059 6.52588,18.78366 0,6.21306 0,91.18211 0,91.18211 0,0 -0.47561,7.99266 9.69895,7.99266 11.7275,0 11.2539,-7.37811 11.2539,-7.37811 l 0,-138.85275 90.209,0 0,138.85275 c 0,0 -0.4719,7.37811 11.2537,7.37811 10.1747,0 9.7156,-7.99266 9.7156,-7.99266 0,0 0,-84.96905 0,-91.18211 0,-6.21307 5.1285,-15.98714 6.5259,-18.78366 1.399,-2.79651 1.2454,-3.58481 -1.7083,-5.44854 -2.9502,-1.86373 -8.7115,-2.32099 -8.7115,-2.32099 l 0,-20.81931 c 0,0 29.9844,0 35.2629,0 5.282,0 4.6546,-4.65476 4.6546,-4.65476 0,0 0,-19.87739 0,-21.89658 0,-2.01921 -4.0256,-1.70644 -4.0256,-1.70644 0,0 -2.3338,0 -2.3338,1.24187 0,1.24188 -1.2437,1.43758 -1.2437,1.43758 l -25.1136,0 c 0,0 -1.2164,-5.70277 -7.7368,-5.70277 -5.9057,0 1.8821,-2.66483 4.9238,-8.00729 7.9066,-0.0275 15.8133,-0.064 23.7237,-0.1353 14.7104,-0.34201 11.9743,-7.87194 11.9743,-7.87194 0,0 -1.0187,-6.15452 10.9556,-11.28481 11.9743,-5.1303 12.3091,-13.34609 13.3351,-19.84814 1.028,-6.50022 9.9241,-15.38725 9.9241,-15.38725 0,0 3.3453,-3.87013 -2.0502,-8.21763 -2.3796,-1.91677 -9.5784,1.70646 -9.5784,1.70646 -50.8257,28.58335 -206.97145,28.27975 -249.68734,0 0.004,0 -4.7517,-2.39049 -7.81159,-2.26064 z m 94.90953,63.10177 c 8.472,0.02 16.9455,0.0439 25.4155,0.0749 l 0,16.28527 -20.265,0 c 0,0 -3.6561,-8.15726 -10.1765,-8.15726 -5.9771,0 2.0685,-2.73067 5.026,-8.203 z m 50.0812,0.16643 c 8.5085,0.0275 17.0133,0.0494 25.5199,0.0604 3.0544,5.32233 10.8166,7.97802 4.9236,7.97802 -6.5204,0 -10.1929,8.15726 -10.1929,8.15726 l -20.2506,0 0,-16.19565 z"
       id="path4037" />
    <path
       style="fill:#000000"
       inkscape:connector-curvature="0"
       d="m 42.857142,240.39777 h 78.571438 v -78.57144 h 39.28572 v 78.57144 h 78.57142 v 39.28571 H 160.7143 V 436.82633 H 121.42858 V 279.68348 H 42.857142 v -39.28571 z"
       id="path4488" />
    <g
       transform="matrix(3.5256411,0,0,3.5256411,610.66328,-147.68149)"
       id="g2775">
      <path
         inkscape:connector-curvature="0"
         id="path2485"
         d="M 40,8 C 22.336,8 7.9999996,22.336 8,40 8,57.664 22.336,72 40,72 57.664,72 71.999999,57.664 72,40 72,22.336 57.663999,8.0000002 40,8 z m 0,8 c 13.248,0 24,10.752 24,24 -10e-7,13.248 -10.752,24 -24,24 -13.248,10e-7 -24,-10.752 -24,-24 1e-6,-13.248 10.752,-24 24,-24 z"
         style="fill:#000000;fill-opacity:1" />
      <path
         inkscape:connector-curvature="0"
         id="path2490"
         d="m 40,30 c -5.52,0 -9.999999,4.48 -10,10 0,5.52 4.480001,10 10,10 5.52,0 10,-4.48 10,-10 0,-5.52 -4.48,-10 -10,-10 z m 0,5 c 2.76,-10e-7 5,2.24 5,5 0,2.76 -2.24,5 -5,5 -2.76,0 -5,-2.24 -5,-5 0,-2.760001 2.24,-5 5,-5 z"
         style="fill:#000000;fill-opacity:1" />
      <g
         id="g2697">
        <path
           sodipodi:type="arc"
           style="fill:#000000;fill-opacity:1"
           id="path3206"
           sodipodi:cx="201.5"
           sodipodi:cy="374.5"
           sodipodi:rx="196.5"
           sodipodi:ry="187.5"
           d="M 398,374.5 C 398,478.05339 310.02395,562 201.5,562 92.976047,562 5,478.05339 5,374.5 5,270.94661 92.976047,187 201.5,187 310.02395,187 398,270.94661 398,374.5 z"
           transform="matrix(0.02035623,0,0,0.02133333,0.8982189,32.010666)" />
        <g
           id="g2480"
           transform="translate(13.8,-35.999997)">
          <path
             transform="matrix(0.02035623,0,0,0.02133333,-0.1017811,68.010664)"
             d="M 398,374.5 C 398,478.05339 310.02395,562 201.5,562 92.976047,562 5,478.05339 5,374.5 5,270.94661 92.976047,187 201.5,187 310.02395,187 398,270.94661 398,374.5 z"
             sodipodi:ry="187.5"
             sodipodi:rx="196.5"
             sodipodi:cy="374.5"
             sodipodi:cx="201.5"
             id="path3216"
             style="fill:#000000;fill-opacity:1"
             sodipodi:type="arc" />
          <path
             transform="matrix(0.02035623,0,0,0.02133333,5.3982177,68.010664)"
             d="M 398,374.5 C 398,478.05339 310.02395,562 201.5,562 92.976047,562 5,478.05339 5,374.5 5,270.94661 92.976047,187 201.5,187 310.02395,187 398,270.94661 398,374.5 z"
             sodipodi:ry="187.5"
             sodipodi:rx="196.5"
             sodipodi:cy="374.5"
             sodipodi:cx="201.5"
             id="path6156"
             style="fill:#000000;fill-opacity:1"
             sodipodi:type="arc" />
          <path
             transform="matrix(0.02035623,0,0,0.02133333,10.898216,68.010664)"
             d="M 398,374.5 C 398,478.05339 310.02395,562 201.5,562 92.976047,562 5,478.05339 5,374.5 5,270.94661 92.976047,187 201.5,187 310.02395,187 398,270.94661 398,374.5 z"
             sodipodi:ry="187.5"
             sodipodi:rx="196.5"
             sodipodi:cy="374.5"
             sodipodi:cx="201.5"
             id="path6158"
             style="fill:#000000;fill-opacity:1"
             sodipodi:type="arc" />
        </g>
        <path
           sodipodi:type="arc"
           style="fill:#000000;fill-opacity:1"
           id="path2495"
           sodipodi:cx="201.5"
           sodipodi:cy="374.5"
           sodipodi:rx="196.5"
           sodipodi:ry="187.5"
           d="M 398,374.5 C 398,478.05339 310.02395,562 201.5,562 92.976047,562 5,478.05339 5,374.5 5,270.94661 92.976047,187 201.5,187 310.02395,187 398,270.94661 398,374.5 z"
           transform="matrix(0.02035623,0,0,0.02133333,70.898219,32.010666)" />
        <g
           id="g2675"
           transform="matrix(-1,0,0,1,66.2,-35.999997)">
          <path
             transform="matrix(0.02035623,0,0,0.02133333,-0.1017811,68.010664)"
             d="M 398,374.5 C 398,478.05339 310.02395,562 201.5,562 92.976047,562 5,478.05339 5,374.5 5,270.94661 92.976047,187 201.5,187 310.02395,187 398,270.94661 398,374.5 z"
             sodipodi:ry="187.5"
             sodipodi:rx="196.5"
             sodipodi:cy="374.5"
             sodipodi:cx="201.5"
             id="path2677"
             style="fill:#000000;fill-opacity:1"
             sodipodi:type="arc" />
          <path
             transform="matrix(0.02035623,0,0,0.02133333,5.3982177,68.010664)"
             d="M 398,374.5 C 398,478.05339 310.02395,562 201.5,562 92.976047,562 5,478.05339 5,374.5 5,270.94661 92.976047,187 201.5,187 310.02395,187 398,270.94661 398,374.5 z"
             sodipodi:ry="187.5"
             sodipodi:rx="196.5"
             sodipodi:cy="374.5"
             sodipodi:cx="201.5"
             id="path2679"
             style="fill:#000000;fill-opacity:1"
             sodipodi:type="arc" />
          <path
             transform="matrix(0.02035623,0,0,0.02133333,10.898216,68.010664)"
             d="M 398,374.5 C 398,478.05339 310.02395,562 201.5,562 92.976047,562 5,478.05339 5,374.5 5,270.94661 92.976047,187 201.5,187 310.02395,187 398,270.94661 398,374.5 z"
             sodipodi:ry="187.5"
             sodipodi:rx="196.5"
             sodipodi:cy="374.5"
             sodipodi:cx="201.5"
             id="path2681"
             style="fill:#000000;fill-opacity:1"
             sodipodi:type="arc" />
        </g>
      </g>
      <g
         transform="matrix(0.7071068,0.7071068,-0.7071068,0.7071068,40,-16.568543)"
         id="g2709">
        <path
           sodipodi:type="arc"
           style="fill:#000000;fill-opacity:1"
           id="path2711"
           sodipodi:cx="201.5"
           sodipodi:cy="374.5"
           sodipodi:rx="196.5"
           sodipodi:ry="187.5"
           d="M 398,374.5 C 398,478.05339 310.02395,562 201.5,562 92.976047,562 5,478.05339 5,374.5 5,270.94661 92.976047,187 201.5,187 310.02395,187 398,270.94661 398,374.5 z"
           transform="matrix(0.02035623,0,0,0.02133333,0.8982189,32.010666)" />
        <g
           id="g2713"
           transform="translate(13.8,-35.999997)">
          <path
             transform="matrix(0.02035623,0,0,0.02133333,-0.1017811,68.010664)"
             d="M 398,374.5 C 398,478.05339 310.02395,562 201.5,562 92.976047,562 5,478.05339 5,374.5 5,270.94661 92.976047,187 201.5,187 310.02395,187 398,270.94661 398,374.5 z"
             sodipodi:ry="187.5"
             sodipodi:rx="196.5"
             sodipodi:cy="374.5"
             sodipodi:cx="201.5"
             id="path2715"
             style="fill:#000000;fill-opacity:1"
             sodipodi:type="arc" />
          <path
             transform="matrix(0.02035623,0,0,0.02133333,5.3982177,68.010664)"
             d="M 398,374.5 C 398,478.05339 310.02395,562 201.5,562 92.976047,562 5,478.05339 5,374.5 5,270.94661 92.976047,187 201.5,187 310.02395,187 398,270.94661 398,374.5 z"
             sodipodi:ry="187.5"
             sodipodi:rx="196.5"
             sodipodi:cy="374.5"
             sodipodi:cx="201.5"
             id="path2717"
             style="fill:#000000;fill-opacity:1"
             sodipodi:type="arc" />
          <path
             transform="matrix(0.02035623,0,0,0.02133333,10.898216,68.010664)"
             d="M 398,374.5 C 398,478.05339 310.02395,562 201.5,562 92.976047,562 5,478.05339 5,374.5 5,270.94661 92.976047,187 201.5,187 310.02395,187 398,270.94661 398,374.5 z"
             sodipodi:ry="187.5"
             sodipodi:rx="196.5"
             sodipodi:cy="374.5"
             sodipodi:cx="201.5"
             id="path2719"
             style="fill:#000000;fill-opacity:1"
             sodipodi:type="arc" />
        </g>
        <path
           sodipodi:type="arc"
           style="fill:#000000;fill-opacity:1"
           id="path2721"
           sodipodi:cx="201.5"
           sodipodi:cy="374.5"
           sodipodi:rx="196.5"
           sodipodi:ry="187.5"
           d="M 398,374.5 C 398,478.05339 310.02395,562 201.5,562 92.976047,562 5,478.05339 5,374.5 5,270.94661 92.976047,187 201.5,187 310.02395,187 398,270.94661 398,374.5 z"
           transform="matrix(0.02035623,0,0,0.02133333,70.898219,32.010666)" />
        <g
           id="g2723"
           transform="matrix(-1,0,0,1,66.2,-35.999997)">
          <path
             transform="matrix(0.02035623,0,0,0.02133333,-0.1017811,68.010664)"
             d="M 398,374.5 C 398,478.05339 310.02395,562 201.5,562 92.976047,562 5,478.05339 5,374.5 5,270.94661 92.976047,187 201.5,187 310.02395,187 398,270.94661 398,374.5 z"
             sodipodi:ry="187.5"
             sodipodi:rx="196.5"
             sodipodi:cy="374.5"
             sodipodi:cx="201.5"
             id="path2725"
             style="fill:#000000;fill-opacity:1"
             sodipodi:type="arc" />
          <path
             transform="matrix(0.02035623,0,0,0.02133333,5.3982177,68.010664)"
             d="M 398,374.5 C 398,478.05339 310.02395,562 201.5,562 92.976047,562 5,478.05339 5,374.5 5,270.94661 92.976047,187 201.5,187 310.02395,187 398,270.94661 398,374.5 z"
             sodipodi:ry="187.5"
             sodipodi:rx="196.5"
             sodipodi:cy="374.5"
             sodipodi:cx="201.5"
             id="path2727"
             style="fill:#000000;fill-opacity:1"
             sodipodi:type="arc" />
          <path
             transform="matrix(0.02035623,0,0,0.02133333,10.898216,68.010664)"
             d="M 398,374.5 C 398,478.05339 310.02395,562 201.5,562 92.976047,562 5,478.05339 5,374.5 5,270.94661 92.976047,187 201.5,187 310.02395,187 398,270.94661 398,374.5 z"
             sodipodi:ry="187.5"
             sodipodi:rx="196.5"
             sodipodi:cy="374.5"
             sodipodi:cx="201.5"
             id="path2729"
             style="fill:#000000;fill-opacity:1"
             sodipodi:type="arc" />
        </g>
      </g>
      <g
         transform="matrix(0,1,-1,0,80,-2.9899999e-7)"
         id="g2731">
        <path
           sodipodi:type="arc"
           style="fill:#000000;fill-opacity:1"
           id="path2733"
           sodipodi:cx="201.5"
           sodipodi:cy="374.5"
           sodipodi:rx="196.5"
           sodipodi:ry="187.5"
           d="M 398,374.5 C 398,478.05339 310.02395,562 201.5,562 92.976047,562 5,478.05339 5,374.5 5,270.94661 92.976047,187 201.5,187 310.02395,187 398,270.94661 398,374.5 z"
           transform="matrix(0.02035623,0,0,0.02133333,0.8982189,32.010666)" />
        <g
           id="g2735"
           transform="translate(13.8,-35.999997)">
          <path
             transform="matrix(0.02035623,0,0,0.02133333,-0.1017811,68.010664)"
             d="M 398,374.5 C 398,478.05339 310.02395,562 201.5,562 92.976047,562 5,478.05339 5,374.5 5,270.94661 92.976047,187 201.5,187 310.02395,187 398,270.94661 398,374.5 z"
             sodipodi:ry="187.5"
             sodipodi:rx="196.5"
             sodipodi:cy="374.5"
             sodipodi:cx="201.5"
             id="path2737"
             style="fill:#000000;fill-opacity:1"
             sodipodi:type="arc" />
          <path
             transform="matrix(0.02035623,0,0,0.02133333,5.3982177,68.010664)"
             d="M 398,374.5 C 398,478.05339 310.02395,562 201.5,562 92.976047,562 5,478.05339 5,374.5 5,270.94661 92.976047,187 201.5,187 310.02395,187 398,270.94661 398,374.5 z"
             sodipodi:ry="187.5"
             sodipodi:rx="196.5"
             sodipodi:cy="374.5"
             sodipodi:cx="201.5"
             id="path2739"
             style="fill:#000000;fill-opacity:1"
             sodipodi:type="arc" />
          <path
             transform="matrix(0.02035623,0,0,0.02133333,10.898216,68.010664)"
             d="M 398,374.5 C 398,478.05339 310.02395,562 201.5,562 92.976047,562 5,478.05339 5,374.5 5,270.94661 92.976047,187 201.5,187 310.02395,187 398,270.94661 398,374.5 z"
             sodipodi:ry="187.5"
             sodipodi:rx="196.5"
             sodipodi:cy="374.5"
             sodipodi:cx="201.5"
             id="path2741"
             style="fill:#000000;fill-opacity:1"
             sodipodi:type="arc" />
        </g>
        <path
           sodipodi:type="arc"
           style="fill:#000000;fill-opacity:1"
           id="path2743"
           sodipodi:cx="201.5"
           sodipodi:cy="374.5"
           sodipodi:rx="196.5"
           sodipodi:ry="187.5"
           d="M 398,374.5 C 398,478.05339 310.02395,562 201.5,562 92.976047,562 5,478.05339 5,374.5 5,270.94661 92.976047,187 201.5,187 310.02395,187 398,270.94661 398,374.5 z"
           transform="matrix(0.02035623,0,0,0.02133333,70.898219,32.010666)" />
        <g
           id="g2745"
           transform="matrix(-1,0,0,1,66.2,-35.999997)">
          <path
             transform="matrix(0.02035623,0,0,0.02133333,-0.1017811,68.010664)"
             d="M 398,374.5 C 398,478.05339 310.02395,562 201.5,562 92.976047,562 5,478.05339 5,374.5 5,270.94661 92.976047,187 201.5,187 310.02395,187 398,270.94661 398,374.5 z"
             sodipodi:ry="187.5"
             sodipodi:rx="196.5"
             sodipodi:cy="374.5"
             sodipodi:cx="201.5"
             id="path2747"
             style="fill:#000000;fill-opacity:1"
             sodipodi:type="arc" />
          <path
             transform="matrix(0.02035623,0,0,0.02133333,5.3982177,68.010664)"
             d="M 398,374.5 C 398,478.05339 310.02395,562 201.5,562 92.976047,562 5,478.05339 5,374.5 5,270.94661 92.976047,187 201.5,187 310.02395,187 398,270.94661 398,374.5 z"
             sodipodi:ry="187.5"
             sodipodi:rx="196.5"
             sodipodi:cy="374.5"
             sodipodi:cx="201.5"
             id="path2749"
             style="fill:#000000;fill-opacity:1"
             sodipodi:type="arc" />
          <path
             transform="matrix(0.02035623,0,0,0.02133333,10.898216,68.010664)"
             d="M 398,374.5 C 398,478.05339 310.02395,562 201.5,562 92.976047,562 5,478.05339 5,374.5 5,270.94661 92.976047,187 201.5,187 310.02395,187 398,270.94661 398,374.5 z"
             sodipodi:ry="187.5"
             sodipodi:rx="196.5"
             sodipodi:cy="374.5"
             sodipodi:cx="201.5"
             id="path2751"
             style="fill:#000000;fill-opacity:1"
             sodipodi:type="arc" />
        </g>
      </g>
      <g
         transform="matrix(-0.7071068,0.7071068,-0.7071068,-0.7071068,96.568543,40)"
         id="g2753">
        <path
           sodipodi:type="arc"
           style="fill:#000000;fill-opacity:1"
           id="path2755"
           sodipodi:cx="201.5"
           sodipodi:cy="374.5"
           sodipodi:rx="196.5"
           sodipodi:ry="187.5"
           d="M 398,374.5 C 398,478.05339 310.02395,562 201.5,562 92.976047,562 5,478.05339 5,374.5 5,270.94661 92.976047,187 201.5,187 310.02395,187 398,270.94661 398,374.5 z"
           transform="matrix(0.02035623,0,0,0.02133333,0.8982189,32.010666)" />
        <g
           id="g2757"
           transform="translate(13.8,-35.999997)">
          <path
             transform="matrix(0.02035623,0,0,0.02133333,-0.1017811,68.010664)"
             d="M 398,374.5 C 398,478.05339 310.02395,562 201.5,562 92.976047,562 5,478.05339 5,374.5 5,270.94661 92.976047,187 201.5,187 310.02395,187 398,270.94661 398,374.5 z"
             sodipodi:ry="187.5"
             sodipodi:rx="196.5"
             sodipodi:cy="374.5"
             sodipodi:cx="201.5"
             id="path2759"
             style="fill:#000000;fill-opacity:1"
             sodipodi:type="arc" />
          <path
             transform="matrix(0.02035623,0,0,0.02133333,5.3982177,68.010664)"
             d="M 398,374.5 C 398,478.05339 310.02395,562 201.5,562 92.976047,562 5,478.05339 5,374.5 5,270.94661 92.976047,187 201.5,187 310.02395,187 398,270.94661 398,374.5 z"
             sodipodi:ry="187.5"
             sodipodi:rx="196.5"
             sodipodi:cy="374.5"
             sodipodi:cx="201.5"
             id="path2761"
             style="fill:#000000;fill-opacity:1"
             sodipodi:type="arc" />
          <path
             transform="matrix(0.02035623,0,0,0.02133333,10.898216,68.010664)"
             d="M 398,374.5 C 398,478.05339 310.02395,562 201.5,562 92.976047,562 5,478.05339 5,374.5 5,270.94661 92.976047,187 201.5,187 310.02395,187 398,270.94661 398,374.5 z"
             sodipodi:ry="187.5"
             sodipodi:rx="196.5"
             sodipodi:cy="374.5"
             sodipodi:cx="201.5"
             id="path2763"
             style="fill:#000000;fill-opacity:1"
             sodipodi:type="arc" />
        </g>
        <path
           sodipodi:type="arc"
           style="fill:#000000;fill-opacity:1"
           id="path2765"
           sodipodi:cx="201.5"
           sodipodi:cy="374.5"
           sodipodi:rx="196.5"
           sodipodi:ry="187.5"
           d="M 398,374.5 C 398,478.05339 310.02395,562 201.5,562 92.976047,562 5,478.05339 5,374.5 5,270.94661 92.976047,187 201.5,187 310.02395,187 398,270.94661 398,374.5 z"
           transform="matrix(0.02035623,0,0,0.02133333,70.898219,32.010666)" />
        <g
           id="g2767"
           transform="matrix(-1,0,0,1,66.2,-35.999997)">
          <path
             transform="matrix(0.02035623,0,0,0.02133333,-0.1017811,68.010664)"
             d="M 398,374.5 C 398,478.05339 310.02395,562 201.5,562 92.976047,562 5,478.05339 5,374.5 5,270.94661 92.976047,187 201.5,187 310.02395,187 398,270.94661 398,374.5 z"
             sodipodi:ry="187.5"
             sodipodi:rx="196.5"
             sodipodi:cy="374.5"
             sodipodi:cx="201.5"
             id="path2769"
             style="fill:#000000;fill-opacity:1"
             sodipodi:type="arc" />
          <path
             transform="matrix(0.02035623,0,0,0.02133333,5.3982177,68.010664)"
             d="M 398,374.5 C 398,478.05339 310.02395,562 201.5,562 92.976047,562 5,478.05339 5,374.5 5,270.94661 92.976047,187 201.5,187 310.02395,187 398,270.94661 398,374.5 z"
             sodipodi:ry="187.5"
             sodipodi:rx="196.5"
             sodipodi:cy="374.5"
             sodipodi:cx="201.5"
             id="path2771"
             style="fill:#000000;fill-opacity:1"
             sodipodi:type="arc" />
          <path
             transform="matrix(0.02035623,0,0,0.02133333,10.898216,68.010664)"
             d="M 398,374.5 C 398,478.05339 310.02395,562 201.5,562 92.976047,562 5,478.05339 5,374.5 5,270.94661 92.976047,187 201.5,187 310.02395,187 398,270.94661 398,374.5 z"
             sodipodi:ry="187.5"
             sodipodi:rx="196.5"
             sodipodi:cy="374.5"
             sodipodi:cx="201.5"
             id="path2773"
             style="fill:#000000;fill-opacity:1"
             sodipodi:type="arc" />
        </g>
      </g>
    </g>
    <g
       id="g5549"
       transform="matrix(1.375,0,0,1.375,91.688926,558.69747)">
      <circle
         id="circle5190"
         r="231"
         cy="233"
         cx="233"
         sodipodi:cx="233"
         sodipodi:cy="233"
         sodipodi:rx="231"
         sodipodi:ry="231"
         transform="matrix(0.43290043,0,0,0.43290043,379.1342,155.56564)"
         d="M 464,233 C 464,360.57778 360.57778,464 233,464 105.42222,464 2,360.57778 2,233 2,105.42222 105.42222,2 233,2 360.57778,2 464,105.42222 464,233 z" />
      <path
         id="path5192"
         d="m 480,354.26694 a 97.8355,97.8355 0 1 1 0,-195.671 48.91775,48.91775 0 0 1 0,97.8355 z"
         inkscape:connector-curvature="0"
         style="fill:#ffffff" />
      <circle
         id="circle5194"
         r="113"
         cy="346"
         cx="233"
         sodipodi:cx="233"
         sodipodi:cy="346"
         sodipodi:rx="113"
         sodipodi:ry="113"
         style="fill:#000000"
         transform="matrix(0.43290043,0,0,0.43290043,379.1342,155.56564)"
         d="m 346,346 c 0,62.40818 -50.59182,113 -113,113 -62.40818,0 -113,-50.59182 -113,-113 0,-62.40818 50.59182,-113 113,-113 62.40818,0 113,50.59182 113,113 z" />
      <circle
         id="circle5196"
         r="30"
         cy="120"
         cx="233"
         sodipodi:cx="233"
         sodipodi:cy="120"
         sodipodi:rx="30"
         sodipodi:ry="30"
         transform="matrix(0.43290043,0,0,0.43290043,379.1342,155.56564)"
         d="m 263,120 c 0,16.56854 -13.43146,30 -30,30 -16.56854,0 -30,-13.43146 -30,-30 0,-16.56854 13.43146,-30 30,-30 16.56854,0 30,13.43146 30,30 z" />
      <circle
         id="circle5198"
         r="30"
         cy="346"
         cx="233"
         sodipodi:cx="233"
         sodipodi:cy="346"
         sodipodi:rx="30"
         sodipodi:ry="30"
         style="fill:#ffffff"
         transform="matrix(0.43290043,0,0,0.43290043,379.1342,155.56564)"
         d="m 263,346 c 0,16.56854 -13.43146,30 -30,30 -16.56854,0 -30,-13.43146 -30,-30 0,-16.56854 13.43146,-30 30,-30 16.56854,0 30,13.43146 30,30 z" />
    </g>
    <g
       transform="matrix(2.6916855,0,0,2.6916855,-364.27189,-766.28563)"
       id="layer1-2">
      <path
         inkscape:connector-curvature="0"
         d="m 98.281895,50.194412 a 48.583233,48.583233 0 1 1 -97.1664661,0 48.583233,48.583233 0 1 1 97.1664661,0 z"
         transform="matrix(-0.809017,-0.5877853,0.5877853,-0.809017,425.29907,579.38729)"
         id="path3818"
         style="fill:#ffffff;fill-opacity:1;fill-rule:evenodd;stroke:#000000;stroke-width:5;stroke-linecap:square;stroke-linejoin:miter;stroke-miterlimit:4;stroke-opacity:1;stroke-dasharray:none;stroke-dashoffset:1.56000006" />
      <path
         inkscape:connector-curvature="0"
         d="m 414.59555,470.01859 23.28314,71.65813 -60.95605,-44.28716 75.34582,0 -60.95605,44.28717 23.28314,-71.65814 z"
         id="path4329"
         style="fill:none;stroke:#000000;stroke-width:5.16698313;stroke-linecap:square;stroke-linejoin:miter;stroke-miterlimit:4;stroke-opacity:1;stroke-dasharray:none;stroke-dashoffset:1.56000006" />
    </g>
    <path
       style="fill:#000000"
       d="m 442.60597,391.98938 0,-44.83695 -53.98077,0 c -42.32976,0 -53.52023,0.80643 -51.84712,3.73641 18.72926,32.79883 42.42619,54.8272 70.42442,65.46569 l 14.47956,5.5018 0,-26.89001 0,-26.88998 -19.42935,0 c -22.5219,0 -22.09102,-0.49243 -10.46196,11.95652 8.0711,8.64014 8.96739,8.9705 8.96739,3.30526 0,-4.30163 1.89266,-6.29439 5.97827,-6.29439 5.26421,0 5.97826,1.99276 5.97826,16.68401 l 0,16.68401 -11.20924,-6.74733 C 379.79872,390.59824 373.78501,385.49054 364.89554,372.57017 352.27496,354.22674 351.83463,354.49839 394.0326,354.595 l 38.11141,0.0873 0.43666,39.95705 0.43665,39.95705 -14.4306,-1.7091 c -34.83517,-4.12574 -80.31506,-42.97544 -97.90675,-83.63365 -7.29429,-16.85867 -8.57118,-16.47779 55.41785,-16.52921 70.89243,-0.0571 66.50815,0.17427 66.50815,-3.50679 0,-1.90007 -23.41484,-2.98913 -64.2663,-2.98913 -49.2528,0 -64.33966,-0.87288 -64.58035,-3.73641 -1.20548,-14.34343 -1.42252,-43.24656 -0.3479,-46.33152 0.98677,-2.83274 16.82758,-3.73641 65.49714,-3.73641 48.85103,0 63.90779,-0.86344 62.99153,-3.61225 -0.89041,-2.67115 -17.3763,-3.599 -63.28004,-3.5614 l -62.07593,0.0508 1.74565,-8.7282 c 7.06825,-35.34124 67.45182,-89.27968 103.39229,-92.35657 l 10.46195,-0.89566 0.43546,39.60597 c 0.30615,27.84271 -0.58165,39.71222 -2.98913,39.9636 -16.21747,1.69361 -73.66915,0.71889 -73.66915,-1.24984 0,-1.3829 4.03846,-8.38404 8.97435,-15.55813 8.88947,-12.92037 14.90318,-18.02807 36.60989,-31.09425 l 11.20924,-6.74733 0,16.68401 c 0,17.00465 -9.97721,25.85326 -12.49591,11.08241 -0.82237,-4.82275 -2.29344,-4.19934 -10.58033,4.48369 l -9.62515,10.0853 20.83439,0 20.83439,0 0,-26.88998 0,-26.89001 -15.32692,5.82379 c -22.57074,8.5762 -37.92139,20.34402 -52.72267,40.41728 -23.04999,31.26003 -26.49595,28.46283 35.06399,28.46283 l 53.90951,0 0,-44.83695 c 0,-42.8442 0.26573,-44.83696 5.97826,-44.83696 5.71256,0 5.97826,1.99276 5.97826,44.83696 l 0,44.83695 52.30978,0 c 28.77039,0 52.30979,-1.12212 52.30979,-2.49359 0,-2.75203 -22.20479,-35.14569 -27.83837,-40.6123 -10.2025,-9.90006 -27.2855,-20.74157 -40.73503,-25.852 l -15.12225,-5.74601 0,26.89001 0,26.88998 19.98858,0 19.98858,0 -8.77934,-9.18718 c -6.74402,-7.05731 -9.00341,-8.09678 -9.74579,-4.4837 -2.81185,13.68439 -12.48464,4.53155 -12.48464,-11.81349 l 0,-16.51698 8.22011,4.41877 c 17.06446,9.17308 25.39015,16.29629 36.80764,31.49154 6.47114,8.61228 11.76572,16.55891 11.76572,17.65915 0,1.10027 -17.15013,1.96243 -38.11141,1.91592 l -38.11141,-0.0846 -0.83161,-41.07187 -0.83163,-41.07188 11.29359,1.78039 c 39.99773,6.30545 99.34378,60.32788 103.11609,93.86604 l 0.84051,7.47283 -62.02451,0 c -47.62686,0 -62.02449,0.86733 -62.02446,3.73641 6e-5,2.867 14.18432,3.73642 60.95743,3.73642 46.08581,0 61.27179,0.91156 62.24613,3.73641 1.09722,3.181 0.94415,26.91957 -0.28905,44.83696 -0.33045,4.80006 -5.40796,5.23097 -61.63727,5.23097 -38.8587,0 -61.27718,1.09358 -61.27718,2.98913 0,3.56681 -3.66246,3.37545 67.97127,3.5519 l 57.50932,0.14168 -1.78947,7.8679 c -8.73248,38.39508 -64.77491,88.62832 -105.09179,94.19829 l -9.79741,1.35357 0.83002,-40.82701 0.83002,-40.82703 38.11141,-0.0846 c 20.96128,-0.0466 38.11141,0.71396 38.11141,1.68988 0,9.3436 -29.53978,39.42289 -48.57336,49.46051 l -8.22011,4.33499 0,-16.51698 c 0,-14.52419 0.72127,-16.51695 5.97826,-16.51695 3.32125,0 5.97826,1.99276 5.97826,4.4837 0,6.68109 3.66279,5.19212 11.43659,-4.64909 l 6.9529,-8.802 -19.6567,0 -19.6567,0 0,26.87796 0,26.87799 12.7038,-4.99722 c 29.43636,-11.57921 70.99185,-50.90869 70.99185,-67.18905 0,-1.37147 -23.5394,-2.49359 -52.30979,-2.49359 l -52.30978,0 0,44.83695 c 0,42.8442 -0.26573,44.83696 -5.97826,44.83696 -5.71256,0 -5.97826,-1.99276 -5.97826,-44.83696 z m 0,-82.20108 c 0,-3.82206 -8.0659,-4.4837 -54.65837,-4.4837 -52.66564,0 -54.6584,-0.21791 -54.6584,-5.97826 0,-5.76029 1.99276,-5.97826 54.6584,-5.97826 42.02645,0 54.65837,-0.87226 54.65837,-3.77429 0,-2.91368 -13.46101,-3.76442 -59.03533,-3.73097 l -59.03532,0.0433 -0.91106,14.1929 -0.91106,14.19293 59.94639,0 c 51.29291,0 59.94638,-0.64723 59.94638,-4.48369 z m 124.95997,-9.70822 -0.91106,-14.19188 -56.04619,-0.0463 c -42.62159,-0.0353 -56.0462,0.84127 -56.0462,3.65936 0,2.77242 12.91508,3.91169 51.28018,4.5236 46.1907,0.73667 51.3561,1.33701 52.04527,6.04883 0.7037,4.81089 -3.41448,5.23098 -51.28014,5.23098 -44.26974,0 -52.04531,0.66986 -52.04531,4.4837 0,3.82862 8.32135,4.48369 56.95725,4.48369 l 56.95726,0 -0.91106,-14.19191 z"
       id="path3259"
       inkscape:connector-curvature="0" />
  </g>
</svg>
